<svg xmlns="http://www.w3.org/2000/svg" 
    xmlns:xlink="http://www.w3.org/1999/xlink" width="700px" height="475px" version="1.1">
    <defs>
        <style type="text/css">ul { margin-top: 0px; margin-bottom: 10px } &#xa;ol { margin-top: 0px; margin-bottom: 10px } &#xa;ul { margin-top: 0px; margin-bottom: 10px } &#xa;ol { margin-top: 0px; margin-bottom: 10px } &#xa;ul { margin-top: 0px; margin-bottom: 10px } &#xa;ol { margin-top: 0px; margin-bottom: 10px } &#xa;</style>
    </defs>
    <g transform="translate(0.5,0.5)">
        <rect x="257.5" y="20" width="250" height="98" fill="#90e080" stroke="#000000" pointer-events="none"/>
        <path d="M 257.5 52 L 507.5 52" fill="none" stroke="#000000" stroke-miterlimit="10" pointer-events="none"/>
        <g fill="#000000" font-family="Helvetica" font-weight="bold" text-anchor="middle" font-size="12px">
            <text x="380.5" y="32.5">&lt;&lt;Interface&gt;&gt;</text>
            <text x="380.5" y="46.5">ViewFactory</text>
        </g>
        <g fill="#000000" font-family="Helvetica" font-size="12px">
            <text x="264" y="68.5">+ makeMenuView(MainMenuModel model)</text>
        </g>
        <g fill="#000000" font-family="Helvetica" font-size="12px">
            <text x="264" y="84.5">+ makeFightView(FightModel model)</text>
        </g>
        <g fill="#000000" font-family="Helvetica" font-size="12px">
            <text x="264" y="100.5">+ makeRewardView(RewardModel model)</text>
        </g>
        <rect x="69" y="188" width="245" height="83" fill="#7acaff" stroke="#000000" pointer-events="none"/>
        <path d="M 69 206 L 314 206" fill="none" stroke="#000000" stroke-miterlimit="10" pointer-events="none"/>
        <g fill="#000000" font-family="Helvetica" font-weight="bold" text-anchor="middle" font-size="12px">
            <text x="191" y="200.5">LanternaFactory</text>
        </g>
        <g fill="#000000" font-family="Helvetica" font-size="12px">
            <text x="75.5" y="222.5">+ makeMenuView(MainMenuModel model)</text>
        </g>
        <g fill="#000000" font-family="Helvetica" font-size="12px">
            <text x="75.5" y="238.5">+ makeFightView(FightModel model)</text>
        </g>
        <g fill="#000000" font-family="Helvetica" font-size="12px">
            <text x="75.5" y="254.5">+ makeRewardView(RewardModel model)</text>
        </g>
        <rect x="424.5" y="193" width="245" height="80" fill="#7acaff" stroke="#000000" pointer-events="none"/>
        <path d="M 424.5 211 L 669.5 211" fill="none" stroke="#000000" stroke-miterlimit="10" pointer-events="none"/>
        <g fill="#000000" font-family="Helvetica" font-weight="bold" text-anchor="middle" font-size="12px">
            <text x="546.5" y="205.5">SwingFactory</text>
        </g>
        <g fill="#000000" font-family="Helvetica" font-size="12px">
            <text x="431" y="227.5">+ makeMenuView(MainMenuModel model)</text>
        </g>
        <g fill="#000000" font-family="Helvetica" font-size="12px">
            <text x="431" y="243.5">+ makeFightView(FightModel model)</text>
        </g>
        <g fill="#000000" font-family="Helvetica" font-size="12px">
            <text x="431" y="259.5">+ makeRewardView(RewardModel model)</text>
        </g>
        <path d="M 369 131.12 L 369 150 Q 369 160 359 160 L 191 160 Q 181 160 181 170 L 181 188" fill="none" stroke="#000000" stroke-miterlimit="10" pointer-events="none"/>
        <path d="M 369 119.12 L 375 131.12 L 363 131.12 Z" fill="none" stroke="#000000" stroke-miterlimit="10" pointer-events="none"/>
        <path d="M 369 131.12 L 369 150 Q 369 160 379 160 L 526 160 Q 536 160 536 170 L 536 193" fill="none" stroke="#000000" stroke-miterlimit="10" pointer-events="none"/>
        <path d="M 369 119.12 L 375 131.12 L 363 131.12 Z" fill="none" stroke="#000000" stroke-miterlimit="10" pointer-events="none"/>
        <rect x="20" y="344" width="144" height="40" fill="#7acaff" stroke="#000000" pointer-events="none"/>
        <path d="M 20 362 L 164 362" fill="none" stroke="#000000" stroke-miterlimit="10" pointer-events="none"/>
        <g fill="#000000" font-family="Helvetica" font-weight="bold" text-anchor="middle" font-size="12px">
            <text x="91.5" y="356.5">MainMenuViewLanterna</text>
        </g>
        <rect x="108" y="410" width="150" height="40" fill="#7acaff" stroke="#000000" pointer-events="none"/>
        <path d="M 108 428 L 258 428" fill="none" stroke="#000000" stroke-miterlimit="10" pointer-events="none"/>
        <g fill="#000000" font-family="Helvetica" font-weight="bold" text-anchor="middle" font-size="12px">
            <text x="182.5" y="422.5">FightViewLanterna</text>
        </g>
        <rect x="196.5" y="344" width="145" height="40" fill="#7acaff" stroke="#000000" pointer-events="none"/>
        <path d="M 196.5 362 L 341.5 362" fill="none" stroke="#000000" stroke-miterlimit="10" pointer-events="none"/>
        <g fill="#000000" font-family="Helvetica" font-weight="bold" text-anchor="middle" font-size="12px">
            <text x="268.5" y="356.5">RewardViewLanterna</text>
        </g>
        <rect x="547" y="348" width="130" height="38" fill="#7acaff" stroke="#000000" pointer-events="none"/>
        <path d="M 547 366 L 677 366" fill="none" stroke="#000000" stroke-miterlimit="10" pointer-events="none"/>
        <g fill="#000000" font-family="Helvetica" font-weight="bold" text-anchor="middle" font-size="12px">
            <text x="611.5" y="360.5">MainMenuViewSwing</text>
        </g>
        <rect x="469" y="412" width="135" height="40" fill="#7acaff" stroke="#000000" pointer-events="none"/>
        <path d="M 469 430 L 604 430" fill="none" stroke="#000000" stroke-miterlimit="10" pointer-events="none"/>
        <g fill="#000000" font-family="Helvetica" font-weight="bold" text-anchor="middle" font-size="12px">
            <text x="536" y="424.5">FightViewSwing</text>
        </g>
        <rect x="382" y="348" width="132" height="38" fill="#7acaff" stroke="#000000" pointer-events="none"/>
        <path d="M 382 366 L 514 366" fill="none" stroke="#000000" stroke-miterlimit="10" pointer-events="none"/>
        <g fill="#000000" font-family="Helvetica" font-weight="bold" text-anchor="middle" font-size="12px">
            <text x="447.5" y="360.5">RewardViewSwing</text>
        </g>
        <path d="M 183 271 L 183 298 Q 183 308 173 308 L 102 308 Q 92 308 92 318 L 92 341.76" fill="none" stroke="#000000" stroke-miterlimit="10" stroke-dasharray="5" pointer-events="none"/>
        <path d="M 86 330.88 L 92 342.88 L 98 330.88" fill="none" stroke="#000000" stroke-miterlimit="10" pointer-events="none"/>
        <path d="M 138 308 L 259 308 Q 269 308 269 318 L 269 341.76" fill="none" stroke="#000000" stroke-miterlimit="10" stroke-dasharray="5" pointer-events="none"/>
        <path d="M 263 330.88 L 269 342.88 L 275 330.88" fill="none" stroke="#000000" stroke-miterlimit="10" pointer-events="none"/>
        <path d="M 183 271 L 183 299 Q 183 309 183 319 L 183 407.76" fill="none" stroke="#000000" stroke-miterlimit="10" stroke-dasharray="5" pointer-events="none"/>
        <path d="M 177 396.88 L 183 408.88 L 189 396.88" fill="none" stroke="#000000" stroke-miterlimit="10" pointer-events="none"/>
        <path d="M 536 273 L 536.5 273 Q 537 273 537 283 L 537 299 Q 537 309 527 309 L 459 309 Q 449 309 449 319 L 449 345.76" fill="none" stroke="#000000" stroke-miterlimit="10" stroke-dasharray="5" pointer-events="none"/>
        <path d="M 443 334.88 L 449 346.88 L 455 334.88" fill="none" stroke="#000000" stroke-miterlimit="10" pointer-events="none"/>
        <path d="M 536 273 L 536 299 Q 536 309 536.5 309 L 536.75 309 Q 537 309 547 309 L 602 309 Q 612 309 612 319 L 612 345.76" fill="none" stroke="#000000" stroke-miterlimit="10" stroke-dasharray="5" pointer-events="none"/>
        <path d="M 606 334.88 L 612 346.88 L 618 334.88" fill="none" stroke="#000000" stroke-miterlimit="10" pointer-events="none"/>
        <path d="M 536 273 L 536.5 273 Q 537 273 537 283 L 537 345 Q 537 355 537 365 L 537 409.76" fill="none" stroke="#000000" stroke-miterlimit="10" stroke-dasharray="5" pointer-events="none"/>
        <path d="M 531 398.88 L 537 410.88 L 543 398.88" fill="none" stroke="#000000" stroke-miterlimit="10" pointer-events="none"/>
        <path d="M 369 131.12 L 369 150 Q 369 160 359 160 L 191 160 Q 181 160 181 170 L 181 188" fill="none" stroke="#000000" stroke-miterlimit="10" pointer-events="none"/>
        <path d="M 369 119.12 L 375 131.12 L 363 131.12 Z" fill="none" stroke="#000000" stroke-miterlimit="10" pointer-events="none"/>
        <path d="M 369 131.12 L 369 150 Q 369 160 379 160 L 526 160 Q 536 160 536 170 L 536 193" fill="none" stroke="#000000" stroke-miterlimit="10" pointer-events="none"/>
        <path d="M 369 119.12 L 375 131.12 L 363 131.12 Z" fill="none" stroke="#000000" stroke-miterlimit="10" pointer-events="none"/>
        <path d="M 369 131.12 L 369 150 Q 369 160 359 160 L 191 160 Q 181 160 181 170 L 181 188" fill="none" stroke="#000000" stroke-miterlimit="10" pointer-events="none"/>
        <path d="M 369 119.12 L 375 131.12 L 363 131.12 Z" fill="none" stroke="#000000" stroke-miterlimit="10" pointer-events="none"/>
        <path d="M 183 271 L 183 298 Q 183 308 173 308 L 102 308 Q 92 308 92 318 L 92 341.76" fill="none" stroke="#000000" stroke-miterlimit="10" stroke-dasharray="5" pointer-events="none"/>
        <path d="M 86 330.88 L 92 342.88 L 98 330.88" fill="none" stroke="#000000" stroke-miterlimit="10" pointer-events="none"/>
        <path d="M 183 271 L 183 299 Q 183 309 183 319 L 183 407.76" fill="none" stroke="#000000" stroke-miterlimit="10" stroke-dasharray="5" pointer-events="none"/>
        <path d="M 177 396.88 L 183 408.88 L 189 396.88" fill="none" stroke="#000000" stroke-miterlimit="10" pointer-events="none"/>
        <path d="M 369 131.12 L 369 150 Q 369 160 379 160 L 526 160 Q 536 160 536 170 L 536 193" fill="none" stroke="#000000" stroke-miterlimit="10" pointer-events="none"/>
        <path d="M 369 119.12 L 375 131.12 L 363 131.12 Z" fill="none" stroke="#000000" stroke-miterlimit="10" pointer-events="none"/>
        <path d="M 536 273 L 536.5 273 Q 537 273 537 283 L 537 299 Q 537 309 527 309 L 459 309 Q 449 309 449 319 L 449 345.76" fill="none" stroke="#000000" stroke-miterlimit="10" stroke-dasharray="5" pointer-events="none"/>
        <path d="M 443 334.88 L 449 346.88 L 455 334.88" fill="none" stroke="#000000" stroke-miterlimit="10" pointer-events="none"/>
        <path d="M 536 273 L 536 299 Q 536 309 536.5 309 L 536.75 309 Q 537 309 547 309 L 602 309 Q 612 309 612 319 L 612 345.76" fill="none" stroke="#000000" stroke-miterlimit="10" stroke-dasharray="5" pointer-events="none"/>
        <path d="M 606 334.88 L 612 346.88 L 618 334.88" fill="none" stroke="#000000" stroke-miterlimit="10" pointer-events="none"/>
        <path d="M 536 273 L 536.5 273 Q 537 273 537 283 L 537 345 Q 537 355 537 365 L 537 409.76" fill="none" stroke="#000000" stroke-miterlimit="10" stroke-dasharray="5" pointer-events="none"/>
        <path d="M 531 398.88 L 537 410.88 L 543 398.88" fill="none" stroke="#000000" stroke-miterlimit="10" pointer-events="none"/>
        <path d="M 183 271 L 183 298 Q 183 308 173 308 L 102 308 Q 92 308 92 318 L 92 341.76" fill="none" stroke="#000000" stroke-miterlimit="10" stroke-dasharray="5" pointer-events="none"/>
        <path d="M 86 330.88 L 92 342.88 L 98 330.88" fill="none" stroke="#000000" stroke-miterlimit="10" pointer-events="none"/>
        <path d="M 183 271 L 183 299 Q 183 309 183 319 L 183 407.76" fill="none" stroke="#000000" stroke-miterlimit="10" stroke-dasharray="5" pointer-events="none"/>
        <path d="M 177 396.88 L 183 408.88 L 189 396.88" fill="none" stroke="#000000" stroke-miterlimit="10" pointer-events="none"/>
        <path d="M 138 308 L 259 308 Q 269 308 269 318 L 269 341.76" fill="none" stroke="#000000" stroke-miterlimit="10" stroke-dasharray="5" pointer-events="none"/>
        <path d="M 263 330.88 L 269 342.88 L 275 330.88" fill="none" stroke="#000000" stroke-miterlimit="10" pointer-events="none"/>
        <path d="M 536 273 L 536 299 Q 536 309 536.5 309 L 536.75 309 Q 537 309 547 309 L 602 309 Q 612 309 612 319 L 612 345.76" fill="none" stroke="#000000" stroke-miterlimit="10" stroke-dasharray="5" pointer-events="none"/>
        <path d="M 606 334.88 L 612 346.88 L 618 334.88" fill="none" stroke="#000000" stroke-miterlimit="10" pointer-events="none"/>
        <path d="M 536 273 L 536.5 273 Q 537 273 537 283 L 537 345 Q 537 355 537 365 L 537 409.76" fill="none" stroke="#000000" stroke-miterlimit="10" stroke-dasharray="5" pointer-events="none"/>
        <path d="M 531 398.88 L 537 410.88 L 543 398.88" fill="none" stroke="#000000" stroke-miterlimit="10" pointer-events="none"/>
        <path d="M 536 273 L 536.5 273 Q 537 273 537 283 L 537 299 Q 537 309 527 309 L 459 309 Q 449 309 449 319 L 449 345.76" fill="none" stroke="#000000" stroke-miterlimit="10" stroke-dasharray="5" pointer-events="none"/>
        <path d="M 443 334.88 L 449 346.88 L 455 334.88" fill="none" stroke="#000000" stroke-miterlimit="10" pointer-events="none"/>
        <path d="M 138 308 L 259 308 Q 269 308 269 318 L 269 341.76" fill="none" stroke="#000000" stroke-miterlimit="10" stroke-dasharray="5" pointer-events="none"/>
        <path d="M 263 330.88 L 269 342.88 L 275 330.88" fill="none" stroke="#000000" stroke-miterlimit="10" pointer-events="none"/>
    </g>
</svg>