<svg xmlns="http://www.w3.org/2000/svg" 
    xmlns:xlink="http://www.w3.org/1999/xlink" width="386px" height="240px" version="1.1">
    <defs>
        <style type="text/css">ul { margin-top: 0px; margin-bottom: 10px } &#xa;ol { margin-top: 0px; margin-bottom: 10px } &#xa;ul { margin-top: 0px; margin-bottom: 10px } &#xa;ol { margin-top: 0px; margin-bottom: 10px } &#xa;ul { margin-top: 0px; margin-bottom: 10px } &#xa;ol { margin-top: 0px; margin-bottom: 10px } &#xa;</style>
    </defs>
    <g transform="translate(0.5,0.5)">
        <rect x="49.5" y="20" width="80" height="40" fill="#7acff5" stroke="#000000" pointer-events="none"/>
        <path d="M 49.5 38 L 129.5 38" fill="none" stroke="#000000" stroke-miterlimit="10" pointer-events="none"/>
        <g fill="#000000" font-family="Helvetica" font-weight="bold" text-anchor="middle" font-size="12px">
            <text x="89" y="32.5">Deck</text>
        </g>
        <rect x="20" y="129" width="139" height="88" fill="#90e080" stroke="#000000" pointer-events="none"/>
        <path d="M 20 161 L 159 161" fill="none" stroke="#000000" stroke-miterlimit="10" pointer-events="none"/>
        <g fill="#000000" font-family="Helvetica" font-weight="bold" text-anchor="middle" font-size="12px">
            <text x="89" y="141.5">&lt;&lt;Interface&gt;&gt;</text>
            <text x="89" y="155.5">ListCycler</text>
        </g>
        <g fill="#000000" font-family="Helvetica" font-size="12px">
            <text x="26.5" y="177.5">+selectLeft()</text>
        </g>
        <g fill="#000000" font-family="Helvetica" font-size="12px">
            <text x="26.5" y="193.5">+selectRight()</text>
        </g>
        <g fill="#000000" font-family="Helvetica" font-size="12px">
            <text x="26.5" y="209.5">+getSelected()</text>
        </g>
        <rect x="224" y="136" width="139" height="74" fill="#7acff5" stroke="#000000" pointer-events="none"/>
        <path d="M 224 154 L 363 154" fill="none" stroke="#000000" stroke-miterlimit="10" pointer-events="none"/>
        <g fill="#000000" font-family="Helvetica" font-weight="bold" text-anchor="middle" font-size="12px">
            <text x="293" y="148.5">ArrayListCycler</text>
        </g>
        <g fill="#000000" font-family="Helvetica" font-size="12px">
            <text x="230.5" y="170.5">+ selectLeft()</text>
        </g>
        <g fill="#000000" font-family="Helvetica" font-size="12px">
            <text x="230.5" y="186.5">+ selectRight()</text>
        </g>
        <g fill="#000000" font-family="Helvetica" font-size="12px">
            <text x="230.5" y="202.5">+ getSelected()</text>
        </g>
        <rect x="253.5" y="20" width="80" height="40" fill="#90e080" stroke="#000000" pointer-events="none"/>
        <path d="M 253.5 38 L 333.5 38" fill="none" stroke="#000000" stroke-miterlimit="10" pointer-events="none"/>
        <g fill="#000000" font-family="Helvetica" font-weight="bold" text-anchor="middle" font-size="12px">
            <text x="293" y="32.5">List</text>
        </g>
        <path d="M 294 136 L 294 62.24" fill="none" stroke="#000000" stroke-miterlimit="10" stroke-dasharray="5" pointer-events="none"/>
        <path d="M 300 73.12 L 294 61.12 L 288 73.12" fill="none" stroke="#000000" stroke-miterlimit="10" pointer-events="none"/>
        <path d="M 172.12 173 L 224 173" fill="none" stroke="#000000" stroke-miterlimit="10" pointer-events="none"/>
        <path d="M 160.12 173 L 172.12 167 L 172.12 179 Z" fill="none" stroke="#000000" stroke-miterlimit="10" pointer-events="none"/>
        <path d="M 90 60 L 90 126.76" fill="none" stroke="#000000" stroke-miterlimit="10" stroke-dasharray="5" pointer-events="none"/>
        <path d="M 84 115.88 L 90 127.88 L 96 115.88" fill="none" stroke="#000000" stroke-miterlimit="10" pointer-events="none"/>
        <path d="M 90 60 L 90 126.76" fill="none" stroke="#000000" stroke-miterlimit="10" stroke-dasharray="5" pointer-events="none"/>
        <path d="M 84 115.88 L 90 127.88 L 96 115.88" fill="none" stroke="#000000" stroke-miterlimit="10" pointer-events="none"/>
        <path d="M 172.12 173 L 224 173" fill="none" stroke="#000000" stroke-miterlimit="10" pointer-events="none"/>
        <path d="M 160.12 173 L 172.12 167 L 172.12 179 Z" fill="none" stroke="#000000" stroke-miterlimit="10" pointer-events="none"/>
        <path d="M 90 60 L 90 126.76" fill="none" stroke="#000000" stroke-miterlimit="10" stroke-dasharray="5" pointer-events="none"/>
        <path d="M 84 115.88 L 90 127.88 L 96 115.88" fill="none" stroke="#000000" stroke-miterlimit="10" pointer-events="none"/>
        <path d="M 294 136 L 294 62.24" fill="none" stroke="#000000" stroke-miterlimit="10" stroke-dasharray="5" pointer-events="none"/>
        <path d="M 300 73.12 L 294 61.12 L 288 73.12" fill="none" stroke="#000000" stroke-miterlimit="10" pointer-events="none"/>
        <path d="M 172.12 173 L 224 173" fill="none" stroke="#000000" stroke-miterlimit="10" pointer-events="none"/>
        <path d="M 160.12 173 L 172.12 167 L 172.12 179 Z" fill="none" stroke="#000000" stroke-miterlimit="10" pointer-events="none"/>
        <path d="M 294 136 L 294 62.24" fill="none" stroke="#000000" stroke-miterlimit="10" stroke-dasharray="5" pointer-events="none"/>
        <path d="M 300 73.12 L 294 61.12 L 288 73.12" fill="none" stroke="#000000" stroke-miterlimit="10" pointer-events="none"/>
    </g>
</svg>