<svg xmlns="http://www.w3.org/2000/svg" 
    xmlns:xlink="http://www.w3.org/1999/xlink" width="409px" height="166px" version="1.1">
    <defs>
        <style type="text/css">ul { margin-top: 0px; margin-bottom: 10px } &#xa;ol { margin-top: 0px; margin-bottom: 10px } &#xa;ul { margin-top: 0px; margin-bottom: 10px } &#xa;ol { margin-top: 0px; margin-bottom: 10px } &#xa;ul { margin-top: 0px; margin-bottom: 10px } &#xa;ol { margin-top: 0px; margin-bottom: 10px } &#xa;</style>
    </defs>
    <g transform="translate(0.5,0.5)">
        <rect x="112" y="20" width="82" height="42" fill="#90e080" stroke="#000000" pointer-events="none"/>
        <path d="M 112 38 L 194 38" fill="none" stroke="#000000" stroke-miterlimit="10" pointer-events="none"/>
        <g fill="#000000" font-family="Helvetica" font-weight="bold" text-anchor="middle" font-size="12px">
            <text x="152.5" y="32.5">IMenuButton</text>
        </g>
        <g fill="#000000" font-family="Helvetica" font-size="12px">
            <text x="118.5" y="54.5">+ click()</text>
        </g>
        <rect x="20" y="101" width="95" height="42" fill="#7acff5" stroke="#000000" pointer-events="none"/>
        <path d="M 20 119 L 115 119" fill="none" stroke="#000000" stroke-miterlimit="10" pointer-events="none"/>
        <g fill="#000000" font-family="Helvetica" font-weight="bold" text-anchor="middle" font-size="12px">
            <text x="67" y="113.5">MenuButton</text>
        </g>
        <g fill="#000000" font-family="Helvetica" font-size="12px">
            <text x="26.5" y="135.5">+ click()</text>
        </g>
        <rect x="167" y="101" width="104" height="42" fill="#7acff5" stroke="#000000" pointer-events="none"/>
        <path d="M 167 119 L 271 119" fill="none" stroke="#000000" stroke-miterlimit="10" pointer-events="none"/>
        <g fill="#000000" font-family="Helvetica" font-weight="bold" text-anchor="middle" font-size="12px">
            <text x="218.5" y="113.5">NullMenuButton</text>
        </g>
        <g fill="#000000" font-family="Helvetica" font-size="12px">
            <text x="173.5" y="135.5">+ click()</text>
        </g>
        <rect x="285" y="20" width="101" height="44" fill="#7acff5" stroke="#000000" pointer-events="none"/>
        <path d="M 285 38 L 386 38" fill="none" stroke="#000000" stroke-miterlimit="10" pointer-events="none"/>
        <g fill="#000000" font-family="Helvetica" font-weight="bold" text-anchor="middle" font-size="12px">
            <text x="335" y="32.5">Menu</text>
        </g>
        <g fill="#000000" font-family="Helvetica" font-size="12px">
            <text x="291.5" y="54.5">+ getSelected()</text>
        </g>
        <path d="M 152 75.12 L 152 79.06 Q 152 83 142 83 L 70 83 Q 60 83 60 92 L 60 101" fill="none" stroke="#000000" stroke-miterlimit="10" pointer-events="none"/>
        <path d="M 152 63.12 L 158 75.12 L 146 75.12 Z" fill="none" stroke="#000000" stroke-miterlimit="10" pointer-events="none"/>
        <path d="M 152 75.12 L 152 79.06 Q 152 83 162 83 L 229 83 Q 239 83 239 92 L 239 101" fill="none" stroke="#000000" stroke-miterlimit="10" pointer-events="none"/>
        <path d="M 152 63.12 L 158 75.12 L 146 75.12 Z" fill="none" stroke="#000000" stroke-miterlimit="10" pointer-events="none"/>
        <path d="M 271.29 41 L 265.65 41 Q 260 41 250 41 L 194 41" fill="none" stroke="#000000" stroke-miterlimit="10" pointer-events="none"/>
        <path d="M 284.29 41 L 277.79 47.5 L 271.29 41 L 277.79 34.5 Z" fill="none" stroke="#000000" stroke-miterlimit="10" pointer-events="none"/>
        <path d="M 152 75.12 L 152 79.06 Q 152 83 142 83 L 70 83 Q 60 83 60 92 L 60 101" fill="none" stroke="#000000" stroke-miterlimit="10" pointer-events="none"/>
        <path d="M 152 63.12 L 158 75.12 L 146 75.12 Z" fill="none" stroke="#000000" stroke-miterlimit="10" pointer-events="none"/>
        <path d="M 152 75.12 L 152 79.06 Q 152 83 162 83 L 229 83 Q 239 83 239 92 L 239 101" fill="none" stroke="#000000" stroke-miterlimit="10" pointer-events="none"/>
        <path d="M 152 63.12 L 158 75.12 L 146 75.12 Z" fill="none" stroke="#000000" stroke-miterlimit="10" pointer-events="none"/>
        <path d="M 271.29 41 L 265.65 41 Q 260 41 250 41 L 194 41" fill="none" stroke="#000000" stroke-miterlimit="10" pointer-events="none"/>
        <path d="M 284.29 41 L 277.79 47.5 L 271.29 41 L 277.79 34.5 Z" fill="none" stroke="#000000" stroke-miterlimit="10" pointer-events="none"/>
        <path d="M 152 75.12 L 152 79.06 Q 152 83 142 83 L 70 83 Q 60 83 60 92 L 60 101" fill="none" stroke="#000000" stroke-miterlimit="10" pointer-events="none"/>
        <path d="M 152 63.12 L 158 75.12 L 146 75.12 Z" fill="none" stroke="#000000" stroke-miterlimit="10" pointer-events="none"/>
        <path d="M 152 75.12 L 152 79.06 Q 152 83 162 83 L 229 83 Q 239 83 239 92 L 239 101" fill="none" stroke="#000000" stroke-miterlimit="10" pointer-events="none"/>
        <path d="M 152 63.12 L 158 75.12 L 146 75.12 Z" fill="none" stroke="#000000" stroke-miterlimit="10" pointer-events="none"/>
        <path d="M 271.29 41 L 265.65 41 Q 260 41 250 41 L 194 41" fill="none" stroke="#000000" stroke-miterlimit="10" pointer-events="none"/>
        <path d="M 284.29 41 L 277.79 47.5 L 271.29 41 L 277.79 34.5 Z" fill="none" stroke="#000000" stroke-miterlimit="10" pointer-events="none"/>
    </g>
</svg>